<svg xmlns="http://www.w3.org/2000/svg" fill="none" viewBox="0 0 2890 896" height="896" width="2890">
<path fill="#842B25" d="M320.826 325.705V554.322H320.745C257.626 554.322 206.469 503.15 206.469 440.014C206.469 376.877 257.626 325.705 320.745 325.705H320.826Z"></path>
<path fill="#FF6C2F" d="M671.648 394.793V410.133C671.648 440.852 665.943 471.163 654.575 501.187C643.166 531.19 625.847 558.167 602.62 582.096C579.372 606.067 550.522 625.251 516.131 639.65C481.699 654.069 441.501 661.288 395.496 661.288H231.862C217.857 661.288 206.488 649.937 206.488 635.907V440.014C206.488 503.15 257.646 554.322 320.764 554.322H320.846V554.568H401.753C425.492 554.568 446.838 550.947 465.935 543.748C484.971 536.549 501.246 526.323 514.741 513.029C528.215 499.796 538.438 483.741 545.411 464.925C552.383 446.088 555.879 425.288 555.879 402.504C555.879 379.72 552.383 357.611 545.411 338.999C538.438 320.408 528.215 304.598 514.741 291.549C501.246 278.521 484.95 268.643 465.935 261.914C446.838 255.165 425.471 251.81 401.753 251.81H335.608C276.436 251.81 228.407 204.095 227.855 145.028H395.496C412.201 145.028 428.129 145.928 443.3 147.708C469.922 150.837 494.212 156.686 516.131 165.276C550.522 178.734 579.372 197.141 602.62 220.375C625.847 243.629 643.166 270.258 654.575 300.262C665.943 330.266 671.648 361.783 671.648 394.793Z"></path>
<path fill="#FF6C2F" d="M837.39 671.085C810.074 671.085 786.131 666.217 765.561 656.502C744.972 646.787 728.88 632.777 717.328 614.493C705.755 596.208 699.969 574.345 699.969 548.881C699.969 521.107 707.145 498.323 721.479 480.509C735.812 462.695 755.951 449.503 781.857 440.933C807.763 432.384 837.615 428.089 871.393 428.089H952.607V489.876H870.718C851.273 489.876 836.368 494.621 825.94 504.111C815.533 513.601 810.319 526.445 810.319 542.643C810.319 557.921 815.533 570.295 825.94 579.785C836.347 589.275 851.273 594.02 870.718 594.02C883.211 594.02 894.416 591.831 904.373 587.434C914.31 583.037 922.53 575.531 929.011 564.875C935.493 554.24 939.194 539.432 940.114 520.452L966.49 548.227C964.179 574.61 957.82 596.822 947.413 614.881C937.006 632.92 922.652 646.808 904.373 656.543C886.094 666.258 863.766 671.125 837.39 671.125V671.085ZM958.863 661.37V548.902H940.134V426.719C940.134 407.269 935.513 392.707 926.251 382.971C916.989 373.256 902.185 368.389 881.841 368.389C871.659 368.389 858.246 368.634 841.582 369.084C824.918 369.555 807.804 370.25 790.22 371.17C772.636 372.111 756.667 373.031 742.334 373.952V280.218C752.966 279.298 765.459 278.378 779.813 277.437C794.146 276.516 808.969 275.821 824.223 275.351C839.496 274.901 853.829 274.655 867.263 274.655C906.132 274.655 938.866 280.218 965.467 291.324C992.068 302.43 1012.31 319.221 1026.19 341.657C1040.08 364.114 1047.01 392.932 1047.01 428.089V661.349H958.863V661.37Z"></path>
<path fill="#FF6C2F" d="M1258 673.192C1203.85 673.192 1161.53 662.086 1130.98 639.875C1100.46 617.663 1084.24 586.412 1082.4 546.141H1180.95C1182.8 558.188 1190.09 568.946 1202.81 578.415C1215.53 587.905 1234.63 592.65 1260.08 592.65C1279.53 592.65 1295.58 589.296 1308.32 582.587C1321.03 575.879 1327.41 566.266 1327.41 553.77C1327.41 542.664 1322.55 533.747 1312.84 527.039C1303.12 520.33 1285.76 515.585 1260.78 512.804L1230.93 510.022C1185.13 505.4 1150.76 492.658 1127.86 471.838C1104.95 451.017 1093.5 424.408 1093.5 391.991C1093.5 365.158 1100.21 342.701 1113.62 324.641C1127.04 306.582 1145.66 292.94 1169.5 283.675C1193.32 274.41 1220.52 269.788 1251.05 269.788C1300.08 269.788 1339.64 280.546 1369.74 302.062C1399.81 323.578 1415.54 354.707 1416.93 395.448H1318.38C1316.52 382.951 1310.05 372.418 1298.93 363.869C1287.83 355.3 1271.39 351.025 1249.66 351.025C1232.52 351.025 1218.88 354.277 1208.7 360.74C1198.52 367.223 1193.43 376.018 1193.43 387.124C1193.43 398.229 1197.82 405.858 1206.62 411.421C1215.41 416.964 1229.74 420.911 1249.66 423.222L1279.51 426.004C1326.23 431.096 1362.56 444.063 1388.47 464.884C1414.37 485.704 1427.34 513.724 1427.34 548.882C1427.34 574.345 1420.4 596.434 1406.52 615.189C1392.64 633.923 1372.97 648.281 1347.53 658.241C1322.08 668.181 1292.25 673.171 1258 673.171V673.192Z"></path>
<path fill="#FF6C2F" d="M1425.96 362.151V280.914H1698.03V362.151H1425.96ZM1644.6 666.238C1606.18 666.238 1575.2 661.493 1551.59 652.003C1527.99 642.513 1510.76 626.56 1499.88 604.103C1489 581.646 1483.56 551.234 1483.56 512.804V178.182H1586.98V516.976C1586.98 535.015 1591.73 548.8 1601.21 558.29C1610.7 567.78 1624.24 572.525 1641.82 572.525H1698.05V666.258H1644.6V666.238Z"></path>
<path fill="#FF6C2F" d="M1893.76 812.718C1875.26 812.718 1856.28 812.022 1836.86 810.631C1817.42 809.241 1799.61 807.38 1783.41 805.068V711.335C1799.61 713.646 1817.54 715.61 1837.21 717.246C1856.88 718.861 1874.79 719.68 1891 719.68C1921.08 719.68 1945.49 716.203 1964.22 709.269C1982.95 702.336 1996.73 691.803 2005.52 677.691C2014.32 663.558 2018.71 645.417 2018.71 623.185V547.511L2038.83 503.088C2037.89 536.876 2031.31 565.816 2019.06 589.868C2006.79 613.941 1989.8 632.327 1968.05 645.069C1946.29 657.811 1920.38 664.172 1890.31 664.172C1864.38 664.172 1840.91 659.427 1819.87 649.937C1798.81 640.447 1780.88 627.153 1766.07 610.014C1751.25 592.895 1739.92 572.872 1732.07 549.965C1724.2 527.059 1720.27 502.189 1720.27 475.335V459.361C1720.27 432.528 1724.44 407.535 1732.77 384.383C1741.09 361.251 1753.13 341.105 1768.85 323.987C1784.58 306.868 1803.33 293.553 1825.08 284.064C1846.82 274.574 1870.88 269.829 1897.26 269.829C1927.81 269.829 1954.28 276.537 1976.73 289.954C1999.19 303.391 2016.87 323.046 2029.83 348.959C2042.78 374.893 2049.73 406.124 2050.65 442.692L2035.38 446.865V280.934H2123.52V616.272C2123.52 663.006 2115.2 700.741 2098.54 729.435C2081.87 758.13 2056.54 779.176 2022.54 792.613C1988.53 806.03 1945.59 812.738 1893.78 812.738L1893.76 812.718ZM1925 570.438C1942.12 570.438 1957.62 566.614 1971.5 558.985C1985.38 551.356 1996.36 540.353 2004.46 526.016C2012.56 511.678 2016.61 494.314 2016.61 473.944V453.819C2016.61 433.918 2012.33 417.147 2003.77 403.485C1995.2 389.843 1983.99 379.433 1970.11 372.254C1956.23 365.076 1941.42 361.496 1925.7 361.496C1907.2 361.496 1890.76 365.894 1876.42 374.688C1862.07 383.483 1850.97 395.754 1843.12 411.482C1835.24 427.21 1831.32 445.74 1831.32 467.031C1831.32 488.322 1835.37 507.424 1843.46 522.907C1851.56 538.41 1862.66 550.231 1876.77 558.31C1890.88 566.409 1906.97 570.459 1925 570.459V570.438Z"></path>
<path fill="#FF6C2F" d="M2261.61 653.046L2145.01 280.914H2256.75L2367.1 653.046H2261.59H2261.61ZM2188.05 812.022V717.614H2267.18C2279.2 717.614 2289.38 716.101 2297.72 713.094C2306.05 710.088 2312.75 705.118 2317.84 698.164C2322.93 691.23 2327.1 681.741 2330.34 669.694L2424.04 280.914H2529.55L2423.35 691.905C2415.95 721.52 2405.64 745.123 2392.45 762.712C2379.26 780.301 2361.68 792.92 2339.7 800.549C2317.72 808.177 2289.83 812.002 2256.07 812.002H2188.05V812.022ZM2307.42 653.046V566.266H2387.93V653.046H2307.42Z"></path>
<path fill="#FF6C2F" d="M2733.2 278.235H2819.15V385.262H2733.97C2714.77 385.262 2698.5 391.582 2685.17 404.242C2672.06 416.902 2665.4 432.323 2665.15 450.526V619.402C2665.15 630.712 2665.31 659.693 2665.31 659.693H2601.87C2590.4 659.693 2600.8 659.693 2600.8 659.693H2558.32V422.997C2558.79 382.379 2573.88 347.753 2603.61 319.119C2633.81 290.486 2670.32 278.255 2713.16 278.255H2733.18L2733.2 278.235Z"></path>
</svg>
